<mxfile host="app.diagrams.net" modified="2021-05-03T06:05:51.325Z" agent="5.0 (Macintosh; Intel Mac OS X 10_15_6) AppleWebKit/537.36 (KHTML, like Gecko) Chrome/89.0.4389.128 Safari/537.36" etag="1_4nayFIX4ar9mVMpaIT" version="14.6.1" type="github">
  <diagram id="l7rW1fUSIEnaGkPRCfBo" name="第 1 页">
    <mxGraphModel dx="1426" dy="769" grid="1" gridSize="10" guides="1" tooltips="1" connect="1" arrows="1" fold="1" page="1" pageScale="1" pageWidth="827" pageHeight="1169" math="0" shadow="0">
      <root>
        <mxCell id="0" />
        <mxCell id="1" parent="0" />
        <mxCell id="Hhq5-fGGNRsg96ZrRCmN-1" value="订单表" style="whiteSpace=wrap;html=1;align=center;strokeWidth=2;fontSize=15;" parent="1" vertex="1">
          <mxGeometry x="350" y="150" width="100" height="40" as="geometry" />
        </mxCell>
        <mxCell id="Hhq5-fGGNRsg96ZrRCmN-2" value="金额" style="ellipse;whiteSpace=wrap;html=1;align=center;strokeWidth=2;fontSize=15;" parent="1" vertex="1">
          <mxGeometry x="350" y="280" width="100" height="40" as="geometry" />
        </mxCell>
        <mxCell id="Hhq5-fGGNRsg96ZrRCmN-3" value="创建时间" style="ellipse;whiteSpace=wrap;html=1;align=center;strokeWidth=2;fontSize=15;" parent="1" vertex="1">
          <mxGeometry x="460" y="230" width="100" height="40" as="geometry" />
        </mxCell>
        <mxCell id="Hhq5-fGGNRsg96ZrRCmN-4" value="商品id" style="ellipse;whiteSpace=wrap;html=1;align=center;strokeWidth=2;fontSize=15;" parent="1" vertex="1">
          <mxGeometry x="250" y="230" width="100" height="40" as="geometry" />
        </mxCell>
        <mxCell id="Hhq5-fGGNRsg96ZrRCmN-5" value="卖家id" style="ellipse;whiteSpace=wrap;html=1;align=center;strokeWidth=2;fontSize=15;" parent="1" vertex="1">
          <mxGeometry x="490" y="150" width="100" height="40" as="geometry" />
        </mxCell>
        <mxCell id="Hhq5-fGGNRsg96ZrRCmN-6" value="是否已发货" style="ellipse;whiteSpace=wrap;html=1;align=center;strokeWidth=2;fontSize=15;" parent="1" vertex="1">
          <mxGeometry x="214" y="150" width="100" height="40" as="geometry" />
        </mxCell>
        <mxCell id="Hhq5-fGGNRsg96ZrRCmN-7" value="订单地址" style="ellipse;whiteSpace=wrap;html=1;align=center;strokeWidth=2;fontSize=15;" parent="1" vertex="1">
          <mxGeometry x="240" y="70" width="100" height="40" as="geometry" />
        </mxCell>
        <mxCell id="Hhq5-fGGNRsg96ZrRCmN-8" value="订单id" style="ellipse;whiteSpace=wrap;html=1;align=center;strokeWidth=2;fontSize=15;" parent="1" vertex="1">
          <mxGeometry x="350" y="30" width="100" height="40" as="geometry" />
        </mxCell>
        <mxCell id="Hhq5-fGGNRsg96ZrRCmN-9" value="卖家id" style="ellipse;whiteSpace=wrap;html=1;align=center;strokeWidth=2;fontSize=15;" parent="1" vertex="1">
          <mxGeometry x="450" y="80" width="100" height="40" as="geometry" />
        </mxCell>
        <mxCell id="Hhq5-fGGNRsg96ZrRCmN-11" value="" style="endArrow=none;html=1;rounded=0;fontSize=15;strokeWidth=2;entryX=0.5;entryY=1;entryDx=0;entryDy=0;" parent="1" source="Hhq5-fGGNRsg96ZrRCmN-2" target="Hhq5-fGGNRsg96ZrRCmN-1" edge="1">
          <mxGeometry relative="1" as="geometry">
            <mxPoint x="300" y="370" as="sourcePoint" />
            <mxPoint x="460" y="370" as="targetPoint" />
          </mxGeometry>
        </mxCell>
        <mxCell id="Hhq5-fGGNRsg96ZrRCmN-12" value="" style="endArrow=none;html=1;rounded=0;fontSize=15;strokeWidth=2;entryX=0.25;entryY=1;entryDx=0;entryDy=0;exitX=0.78;exitY=0.025;exitDx=0;exitDy=0;exitPerimeter=0;" parent="1" source="Hhq5-fGGNRsg96ZrRCmN-4" target="Hhq5-fGGNRsg96ZrRCmN-1" edge="1">
          <mxGeometry relative="1" as="geometry">
            <mxPoint x="410" y="290" as="sourcePoint" />
            <mxPoint x="410" y="200" as="targetPoint" />
          </mxGeometry>
        </mxCell>
        <mxCell id="Hhq5-fGGNRsg96ZrRCmN-13" value="" style="endArrow=none;html=1;rounded=0;fontSize=15;strokeWidth=2;entryX=1;entryY=0.5;entryDx=0;entryDy=0;exitX=0;exitY=0.5;exitDx=0;exitDy=0;" parent="1" source="Hhq5-fGGNRsg96ZrRCmN-1" target="Hhq5-fGGNRsg96ZrRCmN-6" edge="1">
          <mxGeometry relative="1" as="geometry">
            <mxPoint x="420" y="300" as="sourcePoint" />
            <mxPoint x="420" y="210" as="targetPoint" />
          </mxGeometry>
        </mxCell>
        <mxCell id="Hhq5-fGGNRsg96ZrRCmN-14" value="" style="endArrow=none;html=1;rounded=0;fontSize=15;strokeWidth=2;entryX=1;entryY=1;entryDx=0;entryDy=0;exitX=0.25;exitY=0;exitDx=0;exitDy=0;" parent="1" source="Hhq5-fGGNRsg96ZrRCmN-1" target="Hhq5-fGGNRsg96ZrRCmN-7" edge="1">
          <mxGeometry relative="1" as="geometry">
            <mxPoint x="430" y="310" as="sourcePoint" />
            <mxPoint x="430" y="220" as="targetPoint" />
          </mxGeometry>
        </mxCell>
        <mxCell id="Hhq5-fGGNRsg96ZrRCmN-15" value="" style="endArrow=none;html=1;rounded=0;fontSize=15;strokeWidth=2;entryX=0.5;entryY=1;entryDx=0;entryDy=0;" parent="1" source="Hhq5-fGGNRsg96ZrRCmN-1" target="Hhq5-fGGNRsg96ZrRCmN-8" edge="1">
          <mxGeometry relative="1" as="geometry">
            <mxPoint x="440" y="320" as="sourcePoint" />
            <mxPoint x="440" y="230" as="targetPoint" />
          </mxGeometry>
        </mxCell>
        <mxCell id="Hhq5-fGGNRsg96ZrRCmN-16" value="" style="endArrow=none;html=1;rounded=0;fontSize=15;strokeWidth=2;entryX=0.75;entryY=0;entryDx=0;entryDy=0;exitX=0;exitY=1;exitDx=0;exitDy=0;" parent="1" source="Hhq5-fGGNRsg96ZrRCmN-9" target="Hhq5-fGGNRsg96ZrRCmN-1" edge="1">
          <mxGeometry relative="1" as="geometry">
            <mxPoint x="450" y="330" as="sourcePoint" />
            <mxPoint x="450" y="240" as="targetPoint" />
          </mxGeometry>
        </mxCell>
        <mxCell id="Hhq5-fGGNRsg96ZrRCmN-17" value="" style="endArrow=none;html=1;rounded=0;fontSize=15;strokeWidth=2;entryX=1;entryY=0.5;entryDx=0;entryDy=0;exitX=0;exitY=0.5;exitDx=0;exitDy=0;" parent="1" source="Hhq5-fGGNRsg96ZrRCmN-5" target="Hhq5-fGGNRsg96ZrRCmN-1" edge="1">
          <mxGeometry relative="1" as="geometry">
            <mxPoint x="460" y="340" as="sourcePoint" />
            <mxPoint x="460" y="250" as="targetPoint" />
          </mxGeometry>
        </mxCell>
        <mxCell id="Hhq5-fGGNRsg96ZrRCmN-18" value="" style="endArrow=none;html=1;rounded=0;fontSize=15;strokeWidth=2;entryX=0.82;entryY=0.975;entryDx=0;entryDy=0;exitX=0;exitY=0;exitDx=0;exitDy=0;entryPerimeter=0;" parent="1" source="Hhq5-fGGNRsg96ZrRCmN-3" target="Hhq5-fGGNRsg96ZrRCmN-1" edge="1">
          <mxGeometry relative="1" as="geometry">
            <mxPoint x="470" y="350" as="sourcePoint" />
            <mxPoint x="470" y="260" as="targetPoint" />
          </mxGeometry>
        </mxCell>
      </root>
    </mxGraphModel>
  </diagram>
</mxfile>
